<svg width="1185" height="152" fill="none" xmlns="http://www.w3.org/2000/svg"><filter id="firecrawl_invert"><feColorMatrix in="SourceGraphic" type="matrix" values="-1 0 0 0 1&#xA;0 -1 0 0 1&#xA;0 0 -1 0 1&#xA;0 0 0 1 0"/></filter><g filter="url(#firecrawl_invert)"><path d="M342.021 29.794c-8.538 0-16.886 2.473-23.986 7.109-7.1 4.635-12.634 11.224-15.901 18.933a41.293 41.293 0 00-2.457 24.376c1.667 8.183 5.779 15.7 11.817 21.6 6.039 5.9 13.732 9.917 22.107 11.544a44.109 44.109 0 0024.944-2.404c7.889-3.195 14.63-8.604 19.373-15.543 4.742-6.939 7.272-15.096 7.27-23.44-.015-11.182-4.568-21.902-12.66-29.809-8.092-7.906-19.063-12.353-30.507-12.366zm0 64.36c-4.488 0-8.876-1.3-12.608-3.737a22.297 22.297 0 01-8.359-9.952 21.716 21.716 0 01-1.292-12.813 22.027 22.027 0 016.209-11.355 22.86 22.86 0 0111.618-6.072 23.186 23.186 0 0113.112 1.26 22.583 22.583 0 0110.187 8.165 21.822 21.822 0 013.829 12.319c-.005 5.881-2.398 11.52-6.653 15.68-4.254 4.159-10.024 6.498-16.043 6.505zM214.918 63.443l-7.541-3.683c-3.269-1.573-5.316-2.813-6.142-3.72a4.325 4.325 0 01-1.243-2.982c0-1.422.65-2.615 1.959-3.574 1.31-.959 3.116-1.436 5.426-1.436 4.229 0 8.928 2.505 14.098 7.515l12.739-12.449a33.095 33.095 0 00-11.865-9.794 33.915 33.915 0 00-15.121-3.465c-7.792 0-14.186 2.247-19.184 6.74-4.998 4.492-7.498 9.905-7.501 16.24 0 9.824 6.634 18.002 19.901 24.534l6.933 3.387c5.97 2.947 8.956 5.967 8.956 9.062 0 1.67-.829 3.143-2.485 4.42-1.657 1.276-3.843 1.914-6.557 1.914-2.515 0-5.392-.851-8.631-2.553a31.68 31.68 0 01-8.582-6.563l-12.55 13.375c7.133 9.133 16.68 13.7 28.644 13.7 8.995 0 16.17-2.382 21.523-7.144 5.354-4.762 8.029-10.705 8.027-17.827 0-5.349-1.483-10.014-4.448-13.996-2.965-3.982-8.417-7.882-16.356-11.701zM86.781 31.464H66.306l.067 7.194c-6.63-6.563-14.8-8.864-23.203-8.864-11.45 0-22.43 4.445-30.526 12.356S0 60.792 0 71.98c0 11.188 4.548 21.918 12.644 29.83 8.096 7.911 19.077 12.356 30.526 12.356 9.937 0 18.442-4.303 22.823-9.776 0 .331-.03 4.31-.042 4.74-.082 2.72-.485 7.078-3.108 11.53a22.282 22.282 0 01-6.007 6.508 22.834 22.834 0 01-8.123 3.714 23.117 23.117 0 01-8.962.337 22.937 22.937 0 01-8.391-3.095l-10.183 17.321a43.582 43.582 0 0022.187 6.068c11.33 0 25.457-4.376 35.476-17.944 8.333-11.275 7.941-21.927 7.941-32.239V31.464zm-43.61 62.69c-4.49 0-8.877-1.3-12.609-3.737a22.297 22.297 0 01-8.359-9.952 21.708 21.708 0 01-1.292-12.813 22.026 22.026 0 016.209-11.355 22.863 22.863 0 0111.618-6.072 23.188 23.188 0 0113.112 1.26 22.59 22.59 0 0110.187 8.165 21.82 21.82 0 013.829 12.319c-.004 5.881-2.397 11.52-6.652 15.68-4.255 4.16-10.025 6.5-16.044 6.505zM168.409 31.462H147.83v40.111c.041 5.682.033 15.524-4.254 19.742-2.056 2.02-4.295 3.83-9.046 3.83-4.75 0-7.007-1.824-9.06-3.83-4.287-4.218-4.276-14.06-4.235-19.742v-40.11H100.67V71.43c-.056 8.23-.16 23.556 10.165 33.712 6.06 5.958 13.277 8.981 23.71 8.981 10.434 0 17.654-3.023 23.714-8.981 10.326-10.156 10.221-25.482 10.165-33.712l-.015-39.969zM274.852 93.914c-2.347-.31-4.657-1.947-5.971-4.937-.899-2.05-1.224-4.74-1.224-8.055V48.669h24.185V31.403h-24.185V8.977h-20.523v70.318c0 6.896.567 15.254 5.224 22.973 3.974 6.564 10.975 11.869 22.464 11.869 13.93 0 23.953-9.845 23.953-9.845l-12.314-14.797s-5.407 5.24-11.609 4.42z" fill="#C56A53"/><path d="M441.335 112.139c15.457 0 27.128-8.044 33.437-19.558l-11.041-5.678c-4.889 7.571-10.725 13.091-22.238 13.091-13.249 0-24.762-10.094-25.708-23.658h61.668s.158-1.892.158-4.89c0-21.764-15.615-39.429-37.222-39.429-21.765 0-38.168 17.191-38.168 40.06 0 23.343 16.403 40.062 39.114 40.062zm-25.235-47c1.262-10.41 11.514-21.293 23.973-21.293 12.618 0 22.397 9.148 23.816 21.292H416.1zM510.176 70.185c0-15.614 7.728-25.708 19.557-25.708 11.356 0 17.349 8.675 17.349 22.396v43.531h13.564V70.185c0-15.614 7.728-25.708 19.557-25.708 11.514 0 17.35 8.517 17.35 22.08v43.847h13.563V64.192c0-19.715-10.567-32.175-28.231-32.175-14.511 0-22.396 8.517-26.182 14.983-4.574-9.305-12.775-14.983-24.131-14.983-10.567 0-18.295 4.89-22.554 12.775v-11.04h-13.406v76.652h13.564V70.185zM648.639 110.404V98.89c5.678 8.359 15.93 13.249 27.128 13.249 21.765 0 38.483-17.507 38.483-40.061 0-22.712-16.718-40.06-38.483-40.06-11.198 0-21.608 5.52-27.128 13.878V0h-13.406v110.404h13.406zm51.89-38.326c0 15.456-11.356 27.6-26.34 27.6-14.983 0-26.339-12.144-26.339-27.6 0-15.457 11.356-27.601 26.339-27.601 14.984 0 26.34 12.144 26.34 27.6zM768.326 112.139c15.456 0 27.128-8.044 33.436-19.558l-11.04-5.678c-4.889 7.571-10.725 13.091-22.238 13.091-13.249 0-24.762-10.094-25.709-23.658h61.669s.157-1.892.157-4.89c0-21.764-15.614-39.429-37.221-39.429-21.766 0-38.169 17.191-38.169 40.06 0 23.343 16.403 40.062 39.115 40.062zm-25.235-47c1.261-10.41 11.513-21.293 23.973-21.293 12.618 0 22.396 9.148 23.816 21.292h-47.789zM884.464 0v45.266c-5.678-8.36-15.93-13.249-27.128-13.249-21.765 0-38.483 17.507-38.483 40.06 0 22.712 16.718 40.062 38.483 40.062 11.198 0 21.608-5.521 27.128-13.88v12.145h13.406V0h-13.406zm.789 72.078c0 15.456-11.356 27.6-26.339 27.6-14.984 0-26.34-12.144-26.34-27.6 0-15.457 11.356-27.601 26.34-27.601 14.983 0 26.339 12.144 26.339 27.6zM983.193 0v45.266c-5.678-8.36-15.93-13.249-27.128-13.249-21.765 0-38.484 17.507-38.484 40.06 0 22.712 16.719 40.062 38.484 40.062 11.198 0 21.608-5.521 27.128-13.88v12.145h13.406V0h-13.406zm.788 72.078c0 15.456-11.355 27.6-26.339 27.6-14.983 0-26.339-12.144-26.339-27.6 0-15.457 11.356-27.601 26.339-27.601 14.984 0 26.339 12.144 26.339 27.6zM1055.42 112.139c15.46 0 27.13-8.044 33.44-19.558l-11.04-5.678c-4.89 7.571-10.72 13.091-22.24 13.091-13.25 0-24.76-10.094-25.71-23.658h61.67s.16-1.892.16-4.89c0-21.764-15.61-39.429-37.22-39.429-21.77 0-38.17 17.191-38.17 40.06 0 23.343 16.4 40.062 39.11 40.062zm-25.23-47c1.26-10.41 11.51-21.293 23.97-21.293 12.62 0 22.4 9.148 23.82 21.292h-47.79zM1171.56 0v45.266c-5.68-8.36-15.93-13.249-27.12-13.249-21.77 0-38.49 17.507-38.49 40.06 0 22.712 16.72 40.062 38.49 40.062 11.19 0 21.6-5.521 27.12-13.88v12.145h13.41V0h-13.41zm.79 72.078c0 15.456-11.35 27.6-26.34 27.6-14.98 0-26.34-12.144-26.34-27.6 0-15.457 11.36-27.601 26.34-27.601 14.99 0 26.34 12.144 26.34 27.6z" fill="#fff"/></g></svg>