<svg data-name="Layer 2" xmlns="http://www.w3.org/2000/svg" viewBox="0 0 189.79 188.98"><g fill="#323232" data-name="Layer 1"><path d="M120.29 44.51L70.61 68.44c-.25.12-.4.37-.4.64v49.83c0 .27.16.52.4.64l49.68 23.93a.712.712 0 001.02-.64V45.16c0-.52-.55-.87-1.02-.64z" opacity=".15"/><path d="M63.74 60.21H.71c-.39 0-.71.32-.71.71v66.16c0 .39.32.71.71.71h18.37c.39 0 .71.32.71.71v59.77c0 .39.32.71.71.71h30.41c.39 0 .71-.32.71-.71V128.5c0-.39.32-.71.71-.71h11.41c.11 0 .21.02.31.07l124.72 60.06a.712.712 0 001.02-.64V.71c0-.52-.55-.87-1.02-.64L64.05 60.14c-.1.05-.2.07-.31.07zm6.86 8.23l49.68-23.93a.712.712 0 011.02.64v97.69c0 .52-.55.87-1.02.64L70.6 119.55a.706.706 0 01-.4-.64V69.08c0-.27.16-.52.4-.64zM40.58 178.66h-9.76c-.39 0-.71-.32-.71-.71V128.5c0-.39.32-.71.71-.71h9.76c.39 0 .71.32.71.71v49.45c0 .39-.32.71-.71.71zm-30.26-61.9V71.25c0-.39.32-.71.71-.71h48.13c.39 0 .71.32.71.71v45.51c0 .39-.32.71-.71.71H11.04c-.39 0-.71-.32-.71-.71zm168.12 54.74l-46.41-22.35a.706.706 0 01-.4-.64V39.5c0-.27.16-.52.4-.64l46.41-22.35a.712.712 0 011.02.64v153.71c0 .52-.55.87-1.02.64z"/></g></svg>